<svg width="21" height="15" viewBox="0 0 21 15" fill="none" xmlns="http://www.w3.org/2000/svg">
<path d="M1.2825 0.0713615C0.715543 0.254991 0.230694 0.751179 0.0625612 1.3216C0.00782014 1.51304 0 2.16942 0 7.50247C0 13.2497 0.00391007 13.4763 0.0742914 13.7068C0.254155 14.2811 0.746824 14.7695 1.32551 14.9375C1.51711 14.9922 2.39296 15 10.0098 15C17.6266 15 18.5025 14.9922 18.6941 14.9375C19.2727 14.7695 19.7654 14.2811 19.9453 13.7068C20.0157 13.4763 20.0196 13.2497 20.0196 7.50247C20.0196 2.16942 20.0117 1.51304 19.957 1.3216C19.7889 0.743365 19.3001 0.251083 18.7253 0.0713615C18.4946 0.00103569 18.2248 -0.00287151 9.99805 0.00103569C1.87292 0.00103569 1.49756 0.00494194 1.2825 0.0713615ZM18.2288 1.28253C18.3265 1.30207 17.9942 1.6029 14.1701 4.90822L10.0098 8.51438L5.84947 4.90822C2.02542 1.6029 1.69306 1.30207 1.79081 1.28253C1.84946 1.2669 5.54839 1.25518 10.0098 1.25518C14.4712 1.25518 18.1701 1.2669 18.2288 1.28253ZM5.88075 6.65856C7.94136 8.44015 9.66179 9.9209 9.70871 9.94825C9.84556 10.0225 10.2053 10.0108 10.3421 9.92481C10.4086 9.88574 12.3245 8.23308 14.6041 6.26005L18.7488 2.66561L18.7605 7.78768C18.7683 10.6046 18.7605 12.9996 18.7488 13.1129C18.7214 13.3552 18.6041 13.5388 18.4164 13.6482C18.2796 13.7302 18.2679 13.7302 10.1857 13.7419C5.73217 13.7498 2.00196 13.7419 1.88856 13.7302C1.64614 13.7029 1.46237 13.5857 1.35289 13.3981C1.27077 13.2614 1.27077 13.2262 1.25904 7.95568L1.25122 2.64607L1.69306 3.03287C1.93549 3.24384 3.82014 4.87306 5.88075 6.65856Z" fill="#999999"/>
</svg>
